<svg width="126" height="24" viewBox="0 0 126 24" fill="none" xmlns="http://www.w3.org/2000/svg">
<path d="M7.58398 14.4453L5.29883 16.9062V23H0.904297V1.67188H5.29883V11.3398L7.23242 8.68848L12.667 1.67188H18.0723L10.499 11.1494L18.292 23H13.0625L7.58398 14.4453ZM24.1367 23H19.8887V0.5H24.1367V23ZM37.1299 21.3887C36.085 22.6582 34.6396 23.293 32.7939 23.293C31.0947 23.293 29.7959 22.8047 28.8975 21.8281C28.0088 20.8516 27.5547 19.4209 27.5352 17.5361V7.15039H31.7686V17.3896C31.7686 19.04 32.5205 19.8652 34.0244 19.8652C35.46 19.8652 36.4463 19.3672 36.9834 18.3711V7.15039H41.2314V23H37.2471L37.1299 21.3887ZM58.707 15.2217C58.707 17.7607 58.165 19.7432 57.0811 21.1689C55.9971 22.585 54.4834 23.293 52.54 23.293C50.8213 23.293 49.4492 22.6338 48.4238 21.3154L48.2334 23H44.4248V0.5H48.6582V8.57129C49.6348 7.42871 50.9189 6.85742 52.5107 6.85742C54.4443 6.85742 55.958 7.57031 57.0518 8.99609C58.1553 10.4121 58.707 12.4092 58.707 14.9873V15.2217ZM54.4736 14.9141C54.4736 13.3125 54.2197 12.1455 53.7119 11.4131C53.2041 10.6709 52.4473 10.2998 51.4414 10.2998C50.0938 10.2998 49.166 10.8516 48.6582 11.9551V18.21C49.1758 19.3232 50.1133 19.8799 51.4707 19.8799C52.8379 19.8799 53.7363 19.2061 54.166 17.8584C54.3711 17.2139 54.4736 16.2324 54.4736 14.9141ZM64.7861 1.67188L72.6523 20.4951L80.5479 1.67188H82.9502V23H81.1484V13.7129L81.2949 4.19141L73.3555 23H71.9639L64.0537 4.26465L64.2002 13.6543V23H62.3984V1.67188H64.7861ZM94.083 23.293C92.7354 23.293 91.5146 22.9609 90.4209 22.2969C89.3369 21.6328 88.4922 20.71 87.8867 19.5283C87.2812 18.3369 86.9785 17.0039 86.9785 15.5293V14.8994C86.9785 13.376 87.2715 12.0039 87.8574 10.7832C88.4531 9.5625 89.2783 8.60547 90.333 7.91211C91.3877 7.20898 92.5303 6.85742 93.7607 6.85742C95.6846 6.85742 97.208 7.5166 98.3311 8.83496C99.4639 10.1436 100.03 11.9355 100.03 14.2109V15.1924H88.7217V15.5293C88.7217 17.3262 89.2344 18.8252 90.2598 20.0264C91.2949 21.2178 92.5938 21.8135 94.1562 21.8135C95.0938 21.8135 95.9189 21.6426 96.6318 21.3008C97.3545 20.959 98.0088 20.4121 98.5947 19.6602L99.6934 20.4951C98.4043 22.3604 96.5342 23.293 94.083 23.293ZM93.7607 8.35156C92.4424 8.35156 91.3291 8.83496 90.4209 9.80176C89.5225 10.7686 88.9756 12.0674 88.7803 13.6982H98.2871V13.5078C98.2383 11.9844 97.8037 10.7441 96.9834 9.78711C96.1631 8.83008 95.0889 8.35156 93.7607 8.35156ZM109.581 23.293C108.233 23.293 107.013 22.9609 105.919 22.2969C104.835 21.6328 103.99 20.71 103.385 19.5283C102.779 18.3369 102.477 17.0039 102.477 15.5293V14.8994C102.477 13.376 102.77 12.0039 103.355 10.7832C103.951 9.5625 104.776 8.60547 105.831 7.91211C106.886 7.20898 108.028 6.85742 109.259 6.85742C111.183 6.85742 112.706 7.5166 113.829 8.83496C114.962 10.1436 115.528 11.9355 115.528 14.2109V15.1924H104.22V15.5293C104.22 17.3262 104.732 18.8252 105.758 20.0264C106.793 21.2178 108.092 21.8135 109.654 21.8135C110.592 21.8135 111.417 21.6426 112.13 21.3008C112.853 20.959 113.507 20.4121 114.093 19.6602L115.191 20.4951C113.902 22.3604 112.032 23.293 109.581 23.293ZM109.259 8.35156C107.94 8.35156 106.827 8.83496 105.919 9.80176C105.021 10.7686 104.474 12.0674 104.278 13.6982H113.785V13.5078C113.736 11.9844 113.302 10.7441 112.481 9.78711C111.661 8.83008 110.587 8.35156 109.259 8.35156ZM121.666 3.09277V7.15039H124.947V8.58594H121.666V19.1475C121.666 20.0264 121.822 20.6807 122.135 21.1104C122.457 21.54 122.989 21.7549 123.731 21.7549C124.024 21.7549 124.498 21.7061 125.152 21.6084L125.226 23.0439C124.767 23.21 124.142 23.293 123.351 23.293C122.149 23.293 121.275 22.9463 120.729 22.2529C120.182 21.5498 119.908 20.5195 119.908 19.1621V8.58594H116.993V7.15039H119.908V3.09277H121.666Z" fill="black"/>
</svg>
