<svg width="192" height="49" viewBox="0 0 192 49" fill="none" xmlns="http://www.w3.org/2000/svg">
<path d="M0.964736 17.4033C0.856455 8.01506 8.37984 0.404419 17.7687 0.404419H33.13C42.5189 0.404419 50.2178 8.01507 50.3261 17.4033L50.4839 31.0896C50.5922 40.4778 43.0688 48.0885 33.68 48.0885H18.3187C8.92981 48.0885 1.23087 40.4778 1.12259 31.0896L0.964736 17.4033Z" fill="#6536B1"/>
<path d="M27.7703 30.4454C27.7247 26.4951 30.8903 23.2928 34.8409 23.2928L35.3431 23.2928C39.2937 23.2928 42.5331 26.4951 42.5787 30.4454V30.4454C42.6243 34.3957 39.4587 37.598 35.5081 37.598L35.0059 37.598C31.0553 37.598 27.8159 34.3957 27.7703 30.4454V30.4454Z" fill="#6536B1"/>
<path d="M9.90676 22.339C9.80957 13.9118 16.5629 7.08014 24.9907 7.08014L27.0493 7.08014C35.4772 7.08014 42.3881 13.9118 42.4852 22.339V22.339V22.339C42.5824 30.7663 35.8291 37.5979 27.4013 37.5979L25.3427 37.5979C16.9149 37.5979 10.004 30.7663 9.90676 22.339V22.339Z" fill="#6536B1"/>
<path d="M9.81327 14.2327C9.76771 10.2825 12.9333 7.08014 16.8839 7.08014L17.3861 7.08014C21.3366 7.08014 24.5761 10.2825 24.6217 14.2327V14.2327C24.6672 18.183 21.5016 21.3854 17.5511 21.3854L17.0488 21.3854C13.0983 21.3854 9.85883 18.183 9.81327 14.2327V14.2327Z" fill="#6536B1"/>
<path d="M22.3736 33.3064C21.2831 33.3064 20.3889 32.4225 20.3763 31.3321L20.1799 14.2997C20.1673 13.2094 21.0411 12.3254 22.1316 12.3254V12.3254C23.222 12.3254 24.1162 13.2094 24.1288 14.2997L24.3252 31.3321C24.3378 32.4225 23.464 33.3064 22.3736 33.3064V33.3064Z" fill="white"/>
<path d="M28.3385 17.5935C29.4856 16.5532 31.4372 16.6145 32.5011 17.7241V17.7241C33.708 18.9828 33.1305 20.8834 31.3637 21.4673L26.214 23.1691C25.911 23.2693 25.6739 23.4778 25.5645 23.7404V23.7404C25.133 24.7766 23.34 24.4727 23.3912 23.3721L23.4346 22.4369C23.447 22.1702 23.5714 21.9167 23.7848 21.7232L28.3385 17.5935Z" fill="white"/>
<path d="M23.0209 21.8158L33.0434 28.6546C34.2449 29.4745 34.3607 31.0021 33.2916 31.9296V31.9296C32.3727 32.7267 30.8944 32.7929 29.8669 32.0828L26.5742 29.8077C26.2421 29.5783 25.9339 29.3244 25.6531 29.0489L21.3263 24.8048C21.187 24.6682 21.074 24.5135 20.9914 24.3466L20.5988 23.5526C19.9578 22.2566 21.6463 21.0458 23.0209 21.8158V21.8158Z" fill="white"/>
<path d="M69.584 26.4453L67.2988 28.9062V35H62.9043V13.6719H67.2988V23.3398L69.2324 20.6885L74.667 13.6719H80.0723L72.499 23.1494L80.292 35H75.0625L69.584 26.4453ZM86.1367 35H81.8887V12.5H86.1367V35ZM99.1299 33.3887C98.085 34.6582 96.6396 35.293 94.7939 35.293C93.0947 35.293 91.7959 34.8047 90.8975 33.8281C90.0088 32.8516 89.5547 31.4209 89.5352 29.5361V19.1504H93.7686V29.3896C93.7686 31.04 94.5205 31.8652 96.0244 31.8652C97.46 31.8652 98.4463 31.3672 98.9834 30.3711V19.1504H103.231V35H99.2471L99.1299 33.3887ZM120.707 27.2217C120.707 29.7607 120.165 31.7432 119.081 33.1689C117.997 34.585 116.483 35.293 114.54 35.293C112.821 35.293 111.449 34.6338 110.424 33.3154L110.233 35H106.425V12.5H110.658V20.5713C111.635 19.4287 112.919 18.8574 114.511 18.8574C116.444 18.8574 117.958 19.5703 119.052 20.9961C120.155 22.4121 120.707 24.4092 120.707 26.9873V27.2217ZM116.474 26.9141C116.474 25.3125 116.22 24.1455 115.712 23.4131C115.204 22.6709 114.447 22.2998 113.441 22.2998C112.094 22.2998 111.166 22.8516 110.658 23.9551V30.21C111.176 31.3232 112.113 31.8799 113.471 31.8799C114.838 31.8799 115.736 31.2061 116.166 29.8584C116.371 29.2139 116.474 28.2324 116.474 26.9141ZM126.786 13.6719L134.652 32.4951L142.548 13.6719H144.95V35H143.148V25.7129L143.295 16.1914L135.355 35H133.964L126.054 16.2646L126.2 25.6543V35H124.398V13.6719H126.786ZM156.083 35.293C154.735 35.293 153.515 34.9609 152.421 34.2969C151.337 33.6328 150.492 32.71 149.887 31.5283C149.281 30.3369 148.979 29.0039 148.979 27.5293V26.8994C148.979 25.376 149.271 24.0039 149.857 22.7832C150.453 21.5625 151.278 20.6055 152.333 19.9121C153.388 19.209 154.53 18.8574 155.761 18.8574C157.685 18.8574 159.208 19.5166 160.331 20.835C161.464 22.1436 162.03 23.9355 162.03 26.2109V27.1924H150.722V27.5293C150.722 29.3262 151.234 30.8252 152.26 32.0264C153.295 33.2178 154.594 33.8135 156.156 33.8135C157.094 33.8135 157.919 33.6426 158.632 33.3008C159.354 32.959 160.009 32.4121 160.595 31.6602L161.693 32.4951C160.404 34.3604 158.534 35.293 156.083 35.293ZM155.761 20.3516C154.442 20.3516 153.329 20.835 152.421 21.8018C151.522 22.7686 150.976 24.0674 150.78 25.6982H160.287V25.5078C160.238 23.9844 159.804 22.7441 158.983 21.7871C158.163 20.8301 157.089 20.3516 155.761 20.3516ZM171.581 35.293C170.233 35.293 169.013 34.9609 167.919 34.2969C166.835 33.6328 165.99 32.71 165.385 31.5283C164.779 30.3369 164.477 29.0039 164.477 27.5293V26.8994C164.477 25.376 164.77 24.0039 165.355 22.7832C165.951 21.5625 166.776 20.6055 167.831 19.9121C168.886 19.209 170.028 18.8574 171.259 18.8574C173.183 18.8574 174.706 19.5166 175.829 20.835C176.962 22.1436 177.528 23.9355 177.528 26.2109V27.1924H166.22V27.5293C166.22 29.3262 166.732 30.8252 167.758 32.0264C168.793 33.2178 170.092 33.8135 171.654 33.8135C172.592 33.8135 173.417 33.6426 174.13 33.3008C174.853 32.959 175.507 32.4121 176.093 31.6602L177.191 32.4951C175.902 34.3604 174.032 35.293 171.581 35.293ZM171.259 20.3516C169.94 20.3516 168.827 20.835 167.919 21.8018C167.021 22.7686 166.474 24.0674 166.278 25.6982H175.785V25.5078C175.736 23.9844 175.302 22.7441 174.481 21.7871C173.661 20.8301 172.587 20.3516 171.259 20.3516ZM183.666 15.0928V19.1504H186.947V20.5859H183.666V31.1475C183.666 32.0264 183.822 32.6807 184.135 33.1104C184.457 33.54 184.989 33.7549 185.731 33.7549C186.024 33.7549 186.498 33.7061 187.152 33.6084L187.226 35.0439C186.767 35.21 186.142 35.293 185.351 35.293C184.149 35.293 183.275 34.9463 182.729 34.2529C182.182 33.5498 181.908 32.5195 181.908 31.1621V20.5859H178.993V19.1504H181.908V15.0928H183.666Z" fill="black"/>
</svg>
