<svg width="196" height="59" viewBox="0 0 196 59" fill="none" xmlns="http://www.w3.org/2000/svg">
<path d="M5.03882 28.8981C2.55603 19.8434 7.90628 10.5753 16.9889 8.19713L31.8493 4.3061C40.9319 1.9279 50.3076 7.3402 52.7904 16.3948L56.4098 29.5948C58.8926 38.6494 53.5424 47.9175 44.4597 50.2957L29.5994 54.1868C20.5167 56.565 11.1411 51.1527 8.65827 42.098L5.03882 28.8981Z" fill="#6536B1"/>
<path d="M34.2738 34.7249C33.2291 30.915 35.4803 27.0153 39.302 26.0146L39.7879 25.8874C43.6096 24.8867 47.5546 27.164 48.5992 30.9739V30.9739C49.6439 34.7839 47.3927 38.6836 43.571 39.6843L43.0851 39.8115C39.2634 40.8122 35.3184 38.5348 34.2738 34.7249V34.7249Z" fill="#6536B1"/>
<path d="M14.9394 31.4078C12.7108 23.28 17.5134 14.9606 25.6664 12.8258L27.6579 12.3044C35.8109 10.1696 44.2268 15.0279 46.4555 23.1557V23.1557V23.1557C48.6841 31.2835 43.8815 39.603 35.7286 41.7377L33.737 42.2592C25.5841 44.394 17.1681 39.5357 14.9394 31.4078V31.4078Z" fill="#6536B1"/>
<path d="M12.7957 23.5896C11.751 19.7797 14.0022 15.88 17.8239 14.8793L18.3098 14.7521C22.1315 13.7514 26.0765 16.0287 27.1211 19.8386V19.8386C28.1658 23.6485 25.9146 27.5483 22.0929 28.549L21.607 28.6762C17.7853 29.6769 13.8404 27.3995 12.7957 23.5896V23.5896Z" fill="#6536B1"/>
<path d="M29.7777 38.8597C28.7228 39.1359 27.6339 38.5073 27.3456 37.4556L22.8412 21.0285C22.5529 19.9769 23.1743 18.9004 24.2292 18.6242V18.6242C25.2841 18.348 26.373 18.9766 26.6613 20.0283L31.1657 36.4554C31.454 37.507 30.8326 38.5835 29.7777 38.8597V38.8597Z" fill="white"/>
<path d="M31.5681 22.1483C32.4142 20.8514 34.3177 20.4163 35.628 21.2202V21.2202C37.1144 22.1322 37.0371 24.1171 35.4758 25.1295L30.9251 28.0802C30.6573 28.2539 30.4809 28.5156 30.4416 28.7974V28.7974C30.2865 29.9091 28.4751 30.0693 28.2458 28.9916L28.051 28.076C27.9954 27.8148 28.0515 27.538 28.2089 27.2968L31.5681 22.1483Z" fill="white"/>
<path d="M27.4934 27.5798L38.9214 31.6569C40.2913 32.1457 40.7902 33.5942 39.9909 34.7622V34.7622C39.304 35.7661 37.8906 36.2045 36.7167 35.778L32.9552 34.4111C32.5758 34.2732 32.2133 34.1057 31.8719 33.9103L26.6112 30.9006C26.4418 30.8037 26.2933 30.6827 26.1712 30.5421L25.5902 29.8736C24.6418 28.7821 25.9686 27.1831 27.4934 27.5798V27.5798Z" fill="white"/>
<path d="M73.5973 28.4453L71.3121 30.9062V37H66.9176V15.6719H71.3121V25.3398L73.2457 22.6885L78.6803 15.6719H84.0856L76.5123 25.1494L84.3053 37H79.0758L73.5973 28.4453ZM90.15 37H85.902V14.5H90.15V37ZM103.143 35.3887C102.098 36.6582 100.653 37.293 98.8073 37.293C97.108 37.293 95.8092 36.8047 94.9108 35.8281C94.0221 34.8516 93.568 33.4209 93.5485 31.5361V21.1504H97.7819V31.3896C97.7819 33.04 98.5338 33.8652 100.038 33.8652C101.473 33.8652 102.46 33.3672 102.997 32.3711V21.1504H107.245V37H103.26L103.143 35.3887ZM124.72 29.2217C124.72 31.7607 124.178 33.7432 123.094 35.1689C122.01 36.585 120.497 37.293 118.553 37.293C116.835 37.293 115.463 36.6338 114.437 35.3154L114.247 37H110.438V14.5H114.672V22.5713C115.648 21.4287 116.932 20.8574 118.524 20.8574C120.458 20.8574 121.971 21.5703 123.065 22.9961C124.169 24.4121 124.72 26.4092 124.72 28.9873V29.2217ZM120.487 28.9141C120.487 27.3125 120.233 26.1455 119.725 25.4131C119.217 24.6709 118.461 24.2998 117.455 24.2998C116.107 24.2998 115.179 24.8516 114.672 25.9551V32.21C115.189 33.3232 116.127 33.8799 117.484 33.8799C118.851 33.8799 119.75 33.2061 120.179 31.8584C120.384 31.2139 120.487 30.2324 120.487 28.9141ZM130.799 15.6719L138.666 34.4951L146.561 15.6719H148.964V37H147.162V27.7129L147.308 18.1914L139.369 37H137.977L130.067 18.2646L130.214 27.6543V37H128.412V15.6719H130.799ZM160.096 37.293C158.749 37.293 157.528 36.9609 156.434 36.2969C155.35 35.6328 154.505 34.71 153.9 33.5283C153.295 32.3369 152.992 31.0039 152.992 29.5293V28.8994C152.992 27.376 153.285 26.0039 153.871 24.7832C154.466 23.5625 155.292 22.6055 156.346 21.9121C157.401 21.209 158.544 20.8574 159.774 20.8574C161.698 20.8574 163.221 21.5166 164.344 22.835C165.477 24.1436 166.044 25.9355 166.044 28.2109V29.1924H154.735V29.5293C154.735 31.3262 155.248 32.8252 156.273 34.0264C157.308 35.2178 158.607 35.8135 160.17 35.8135C161.107 35.8135 161.932 35.6426 162.645 35.3008C163.368 34.959 164.022 34.4121 164.608 33.6602L165.707 34.4951C164.418 36.3604 162.547 37.293 160.096 37.293ZM159.774 22.3516C158.456 22.3516 157.342 22.835 156.434 23.8018C155.536 24.7686 154.989 26.0674 154.794 27.6982H164.3V27.5078C164.252 25.9844 163.817 24.7441 162.997 23.7871C162.176 22.8301 161.102 22.3516 159.774 22.3516ZM175.594 37.293C174.247 37.293 173.026 36.9609 171.932 36.2969C170.848 35.6328 170.004 34.71 169.398 33.5283C168.793 32.3369 168.49 31.0039 168.49 29.5293V28.8994C168.49 27.376 168.783 26.0039 169.369 24.7832C169.964 23.5625 170.79 22.6055 171.844 21.9121C172.899 21.209 174.042 20.8574 175.272 20.8574C177.196 20.8574 178.719 21.5166 179.842 22.835C180.975 24.1436 181.542 25.9355 181.542 28.2109V29.1924H170.233V29.5293C170.233 31.3262 170.746 32.8252 171.771 34.0264C172.806 35.2178 174.105 35.8135 175.668 35.8135C176.605 35.8135 177.43 35.6426 178.143 35.3008C178.866 34.959 179.52 34.4121 180.106 33.6602L181.205 34.4951C179.916 36.3604 178.046 37.293 175.594 37.293ZM175.272 22.3516C173.954 22.3516 172.84 22.835 171.932 23.8018C171.034 24.7686 170.487 26.0674 170.292 27.6982H179.798V27.5078C179.75 25.9844 179.315 24.7441 178.495 23.7871C177.674 22.8301 176.6 22.3516 175.272 22.3516ZM187.679 17.0928V21.1504H190.961V22.5859H187.679V33.1475C187.679 34.0264 187.836 34.6807 188.148 35.1104C188.47 35.54 189.003 35.7549 189.745 35.7549C190.038 35.7549 190.511 35.7061 191.166 35.6084L191.239 37.0439C190.78 37.21 190.155 37.293 189.364 37.293C188.163 37.293 187.289 36.9463 186.742 36.2529C186.195 35.5498 185.922 34.5195 185.922 33.1621V22.5859H183.006V21.1504H185.922V17.0928H187.679Z" fill="black"/>
</svg>
